<svg id="Capa_1" enable-background="new 0 0 512 512" height="512" viewBox="0 0 512 512" width="512" xmlns="http://www.w3.org/2000/svg" xmlns:xlink="http://www.w3.org/1999/xlink"><linearGradient id="lg1"><stop offset="0" stop-color="#005bf7"/><stop offset="1" stop-color="#00e5a1"/></linearGradient><linearGradient id="SVGID_1_" gradientUnits="userSpaceOnUse" x1="74.979" x2="437.018" xlink:href="#lg1" y1="437.018" y2="74.98"/><radialGradient id="SVGID_2_" cx="255.999" cy="256.009" gradientTransform="matrix(1 -.003 .003 1 -.718 .71)" gradientUnits="userSpaceOnUse" r="255.999"><stop offset="0" stop-color="#005bf7"/><stop offset=".1369" stop-color="#0065f1" stop-opacity=".863"/><stop offset=".3746" stop-color="#0082df" stop-opacity=".625"/><stop offset=".6846" stop-color="#00b0c2" stop-opacity=".315"/><stop offset="1" stop-color="#00e5a1" stop-opacity="0"/></radialGradient><linearGradient id="lg2"><stop offset="0" stop-color="#3ca1ff"/><stop offset=".1036" stop-color="#45a5ff"/><stop offset=".2749" stop-color="#5eb2ff"/><stop offset=".4926" stop-color="#87c5ff"/><stop offset=".7463" stop-color="#c0e0ff"/><stop offset="1" stop-color="#fff"/></linearGradient><linearGradient id="SVGID_3_" gradientUnits="userSpaceOnUse" x1="9.449" x2="518.384" xlink:href="#lg2" y1="437.347" y2="-71.588"/><linearGradient id="SVGID_4_" gradientUnits="userSpaceOnUse" x1="-28.887" x2="524.739" xlink:href="#lg2" y1="628.535" y2="74.91"/><linearGradient id="SVGID_5_" gradientTransform="matrix(1 -.003 .003 1 -.718 .71)" gradientUnits="userSpaceOnUse" x1="-52.264" x2="540.577" xlink:href="#lg2" y1="585.831" y2="-7.01"/><radialGradient id="SVGID_6_" cx="256.002" cy="93.531" gradientUnits="userSpaceOnUse" r="25.861"><stop offset="0" stop-color="#3dcbcd"/><stop offset="1" stop-color="#005bf7"/></radialGradient><linearGradient id="lg3"><stop offset="0" stop-color="#73ecff"/><stop offset="1" stop-color="#fff"/></linearGradient><linearGradient id="SVGID_7_" gradientUnits="userSpaceOnUse" x1="-41.785" x2="363.238" xlink:href="#lg3" y1="538.701" y2="133.678"/><linearGradient id="SVGID_8_" gradientUnits="userSpaceOnUse" x1="152.761" x2="503.333" xlink:href="#lg3" y1="405.308" y2="54.736"/><linearGradient id="SVGID_9_" gradientUnits="userSpaceOnUse" x1="-1.846" x2="440.967" xlink:href="#lg3" y1="499.04" y2="56.228"/><linearGradient id="SVGID_10_" gradientUnits="userSpaceOnUse" x1="102.872" x2="382.242" xlink:href="#lg1" y1="416.655" y2="137.285"/><linearGradient id="SVGID_11_" gradientUnits="userSpaceOnUse" x1="144.799" x2="384.838" xlink:href="#lg1" y1="373.905" y2="133.866"/><linearGradient id="SVGID_12_" gradientUnits="userSpaceOnUse" x1="182.618" x2="372.685" xlink:href="#lg1" y1="345.266" y2="155.199"/><g><circle cx="256" cy="256" fill="url(#SVGID_1_)" r="256"/><path d="m255.281.001c-141.384.397-255.677 115.334-255.28 256.718s115.334 255.677 256.718 255.28 255.677-115.334 255.28-256.718-115.334-255.677-256.718-255.28z" fill="url(#SVGID_2_)"/><path d="m165.45 58.119c-16.544 1.092-30.363 15.698-30.768 32.219-2.717 110.656-2.548 221.332.473 332.031.498 16.531 14.854 31.103 31.395 32.085 19.287 1.14 38.573 1.902 57.861 2.285-.699-133.677-.318-267.369 1.038-401.074-19.999.411-39.999 1.229-59.999 2.454z" fill="url(#SVGID_3_)"/><path d="m376.364 89.631c-.499-16.532-14.373-30.563-30.915-31.552-5-.304-10-.582-15-.835 2.856 132.691 3.26 265.345 1.101 397.961 5-.257 10-.539 15-.847 16.544-1.1 29.913-16.176 30.315-32.696 2.708-110.656 2.53-221.332-.501-332.031z" fill="url(#SVGID_4_)"/><path d="m361.757 422.63c.21-9.944.4-19.889.569-29.833-14.424-44.855-29.633-90.615-45.081-136.801 15.301-56.486 30.242-112.457 44.015-167.334-.445-16.633-14.268-30.601-30.811-31.417-35-1.772-70-2.299-104.999-1.579-16.544.397-30.152 14.713-30.342 31.566-1.126 112.728-.79 225.477.941 338.248.266 16.128 12.803 29.92 28.364 31.34 35.713.759 71.425.221 107.138-1.613 16.543-.928 29.857-15.956 30.206-32.577z" fill="url(#SVGID_5_)"/><path d="m263.567 93.547c.008 4.247-3.379 7.67-7.564 7.671-4.185 0-7.573-3.428-7.565-7.673.007-4.244 3.394-7.702 7.564-7.702 4.169.001 7.557 3.459 7.565 7.704z" fill="url(#SVGID_6_)"/><path d="m361.738 89.027c2.292 101.256 2.503 202.511.631 303.767-87.907-86.08-159.783-202.635-196.694-319.8 14.131-.792 28.262-1.398 42.393-1.818 6.481-.196 12.194 3.902 14.203 10.136 1.522 4.717 3.049 9.438 4.583 14.163 4.393 13.538 17.555 22.27 31.945 20.997 12.362-1.113 22.701-9.742 26.53-21.569 1.473-4.531 2.941-9.058 4.403-13.581 2.008-6.233 7.721-10.329 14.202-10.132 14.131.424 28.262 1.034 42.393 1.83 8.304.474 15.217 7.692 15.411 16.007z" fill="url(#SVGID_7_)"/><path d="m148.383 251.015c-.033 47.267.385 94.535 1.255 141.802.157 8.321 7.087 15.457 15.446 15.851 47.183 2.186 94.367 2.666 141.55 1.44-11.987-80.726-76.669-145.985-158.251-159.093z" fill="url(#SVGID_8_)"/><path d="m362.328 392.796c-87.867-86.083-159.742-202.636-196.653-319.802-8.304.474-15.217 7.686-15.41 16.005-1.217 54.005-1.845 108.01-1.883 162.015 81.582 13.108 146.264 78.368 158.251 159.093 13.429-.349 26.859-.836 40.288-1.461 8.36-.396 15.29-7.532 15.407-15.85z" fill="url(#SVGID_9_)"/><path d="m286.716 302.047c.007-4.241 3.45-7.69 7.693-7.708 15.361-.073 30.723-.189 46.084-.349 4.241-.047 7.696-3.48 7.71-7.665.052-15.164.065-30.328.038-45.491-.008-4.183-3.458-7.604-7.702-7.633-15.37-.098-30.74-.169-46.11-.214-4.245-.011-7.688-3.457-7.693-7.696-.018-15.351-.049-30.702-.093-46.054-.013-4.237-3.451-7.706-7.677-7.732-15.308-.097-30.616-.098-45.924-.003-4.227.028-7.664 3.493-7.677 7.732-.03 10.55-.054 21.1-.072 31.651 18.236 32.982 38.876 64.997 61.415 95.2.004-1.347.006-2.693.008-4.038z" fill="url(#SVGID_10_)"/><path d="m225.294 210.884c-.008 4.802-.015 9.604-.02 14.405-.005 4.241-3.448 7.686-7.693 7.696-15.37.044-30.74.115-46.11.212-4.244.028-7.694 3.448-7.702 7.634-.008 4.433-.012 8.866-.013 13.299 20.877 12.406 41.783 25.048 62.663 37.69 20.087 19.284 40.143 38.608 60.048 57.636.08-.441.129-.892.131-1.355.048-14.006.086-28.011.112-42.017-20.41-31.631-40.995-63.557-61.416-95.2z" fill="url(#SVGID_11_)"/><path d="m163.756 254.129c-.003 10.733.015 21.466.051 32.199.015 4.187 3.468 7.621 7.71 7.666 15.361.159 30.723.275 46.084.347 4.242.02 7.686 3.469 7.693 7.708.026 15.352.065 30.704.117 46.056.015 4.239 3.449 7.71 7.668 7.742 15.283.112 30.565.112 45.848-.003 3.759-.028 6.887-2.791 7.538-6.387-25.147-46.651-69.648-82.286-122.709-95.328z" fill="url(#SVGID_12_)"/></g></svg>