<svg id="Layer_1" data-name="Layer 1" xmlns="http://www.w3.org/2000/svg" viewBox="0 0 63.89 80.08"><defs><style>.cls-1{fill:#FF0000;}</style></defs><g id="_9" data-name="9"><polygon class="cls-1" points="28.63 54.49 14.16 40.02 20.22 33.96 28.63 42.37 40.05 30.94 41.91 32.8 28.63 46.09 20.22 37.68 17.88 40.02 28.63 50.77 46.01 33.39 41.81 29.18 43.67 27.32 49.73 33.39 28.63 54.49"/><path class="cls-1" d="M53,92.81l-.61-.33C51.7,92.13,35.69,83.69,28.76,77a25.54,25.54,0,0,1-7.71-18.25V20.26h11.2a32.52,32.52,0,0,0,13.9-3.06,27.54,27.54,0,0,0,6-3.75l.85-.73.85.73a27.78,27.78,0,0,0,6,3.75,32.59,32.59,0,0,0,13.9,3.06H84.94V58.75A25.5,25.5,0,0,1,77.23,77c-6.93,6.7-23,15.14-23.62,15.49ZM23.68,22.9V58.75A22.87,22.87,0,0,0,30.59,75.1C36.5,80.82,50,88.2,53,89.83c3-1.63,16.49-9,22.41-14.73a22.87,22.87,0,0,0,6.91-16.35V22.9H73.73a35.1,35.1,0,0,1-15-3.32A31.4,31.4,0,0,1,53,16.14a31,31,0,0,1-5.71,3.44,35.12,35.12,0,0,1-15,3.32Z" transform="translate(-21.05 -12.72)"/><path class="cls-1" d="M53,83.72l-.64-.37c-4-2.23-13.66-7.88-18-12.11a17.45,17.45,0,0,1-5.27-12.49V28.26h3.2a40.42,40.42,0,0,0,17.34-3.84c.94-.44,1.87-.92,2.75-1.43l.65-.37.66.37c.88.5,1.81,1,2.77,1.44a40.39,40.39,0,0,0,17.31,3.83h3.21V30.9H73.73a43.17,43.17,0,0,1-18.44-4.09c-.79-.37-1.55-.76-2.3-1.17-.74.41-1.5.8-2.27,1.16a43.16,43.16,0,0,1-18.47,4.1h-.57V58.75a14.82,14.82,0,0,0,4.47,10.6c4,3.87,13.22,9.28,16.84,11.34,3.63-2.06,12.84-7.46,16.84-11.33a14.83,14.83,0,0,0,4.48-10.61V33.4h2.63V58.75a17.49,17.49,0,0,1-5.27,12.5c-4.38,4.22-14.07,9.87-18,12.1Z" transform="translate(-21.05 -12.72)"/></g></svg>