<svg id="Layer_1" data-name="Layer 1" xmlns="http://www.w3.org/2000/svg" viewBox="0 0 75.25 75.25"><defs><style>.cls-1{fill:#e84e48;}</style></defs><path class="cls-1" d="M54.38,12.76A37.67,37.67,0,0,0,16.75,50.38V86.87A1.14,1.14,0,0,0,17.89,88H54.38a37.63,37.63,0,0,0,0-75.25Zm0,73H19V50.38A35.35,35.35,0,1,1,54.38,85.73Z" transform="translate(-16.75 -12.76)"/><path class="cls-1" d="M72.85,53.51a6.31,6.31,0,0,0,1.39-4.16,5.34,5.34,0,0,0-5-5.5H55.85a27.14,27.14,0,0,0,.5-8c-.53-6-3.44-10.15-7.22-10.3-3.24-.13-4.57.58-4.81.72a1.15,1.15,0,0,0-.52,1.2c.54,2.67,1.21,7.48.71,9.05-1.86,5.76-8.22,13-9.72,14.66H28.06a1.14,1.14,0,0,0-1.14,1.14V76.61a1.14,1.14,0,0,0,1.14,1.13H64.94l.4,0a6,6,0,0,0,5.4-5.94,5.85,5.85,0,0,0-.24-1.66,5.94,5.94,0,0,0,2.55-8.56,6,6,0,0,0,1.55-4A5.18,5.18,0,0,0,72.85,53.51Zm-43.65,0h4.95v22H29.2Zm41.63,7a1.13,1.13,0,0,0-.16,1.69,3.67,3.67,0,0,1-1.91,6.12A1.15,1.15,0,0,0,68,70a3.72,3.72,0,0,1,.47,1.8,3.68,3.68,0,0,1-3.38,3.67H36.43V52.77c1.54-1.69,8.21-9.24,10.25-15.55.69-2.15-.06-7-.46-9.21A11.72,11.72,0,0,1,49,27.83c2.51.1,4.63,3.56,5,8.22a25.15,25.15,0,0,1-.78,8.64,1.14,1.14,0,0,0,1.09,1.44H69.24A3.12,3.12,0,0,1,72,49.35c0,2.26-1.24,3.14-1.6,3.2a1.14,1.14,0,0,0,0,2.28c.82,0,1.95.94,1.95,2.72A3.65,3.65,0,0,1,70.83,60.51Z" transform="translate(-16.75 -12.76)"/></svg>