<svg width="43" height="43" viewBox="0 0 43 43" fill="none" xmlns="http://www.w3.org/2000/svg">
<path d="M40.9792 0.875H29.5208C29.2169 0.875 28.9255 0.995722 28.7106 1.21061C28.4957 1.42549 28.375 1.71694 28.375 2.02083V13.4792C28.375 13.7831 28.4957 14.0745 28.7106 14.2894C28.9255 14.5043 29.2169 14.625 29.5208 14.625H40.9792C41.2831 14.625 41.5745 14.5043 41.7894 14.2894C42.0043 14.0745 42.125 13.7831 42.125 13.4792V2.02083C42.125 1.71694 42.0043 1.42549 41.7894 1.21061C41.5745 0.995722 41.2831 0.875 40.9792 0.875ZM39.8333 12.3333H30.6667V3.16667H39.8333V12.3333Z" fill="#646464"/>
<path d="M36.3959 5.45831H34.1042C33.4714 5.45831 32.9584 5.97132 32.9584 6.60415V8.89581C32.9584 9.52864 33.4714 10.0416 34.1042 10.0416H36.3959C37.0287 10.0416 37.5417 9.52864 37.5417 8.89581V6.60415C37.5417 5.97132 37.0287 5.45831 36.3959 5.45831Z" fill="#646464"/>
<path d="M13.4792 0.875H2.02083C1.71694 0.875 1.42549 0.995722 1.21061 1.21061C0.995722 1.42549 0.875 1.71694 0.875 2.02083V13.4792C0.875 13.7831 0.995722 14.0745 1.21061 14.2894C1.42549 14.5043 1.71694 14.625 2.02083 14.625H13.4792C13.7831 14.625 14.0745 14.5043 14.2894 14.2894C14.5043 14.0745 14.625 13.7831 14.625 13.4792V2.02083C14.625 1.71694 14.5043 1.42549 14.2894 1.21061C14.0745 0.995722 13.7831 0.875 13.4792 0.875ZM12.3333 12.3333H3.16667V3.16667H12.3333V12.3333Z" fill="#646464"/>
<path d="M8.89582 5.45831H6.60415C5.97132 5.45831 5.45831 5.97132 5.45831 6.60415V8.89581C5.45831 9.52864 5.97132 10.0416 6.60415 10.0416H8.89582C9.52864 10.0416 10.0416 9.52864 10.0416 8.89581V6.60415C10.0416 5.97132 9.52864 5.45831 8.89582 5.45831Z" fill="#646464"/>
<path d="M13.4792 28.375H2.02083C1.71694 28.375 1.42549 28.4957 1.21061 28.7106C0.995722 28.9255 0.875 29.2169 0.875 29.5208V40.9792C0.875 41.2831 0.995722 41.5745 1.21061 41.7894C1.42549 42.0043 1.71694 42.125 2.02083 42.125H13.4792C13.7831 42.125 14.0745 42.0043 14.2894 41.7894C14.5043 41.5745 14.625 41.2831 14.625 40.9792V29.5208C14.625 29.2169 14.5043 28.9255 14.2894 28.7106C14.0745 28.4957 13.7831 28.375 13.4792 28.375ZM12.3333 39.8333H3.16667V30.6667H12.3333V39.8333Z" fill="#646464"/>
<path d="M8.89582 32.9583H6.60415C5.97132 32.9583 5.45831 33.4713 5.45831 34.1041V36.3958C5.45831 37.0286 5.97132 37.5417 6.60415 37.5417H8.89582C9.52864 37.5417 10.0416 37.0286 10.0416 36.3958V34.1041C10.0416 33.4713 9.52864 32.9583 8.89582 32.9583Z" fill="#646464"/>
<path d="M18.0625 3.16667H23.7916V8.89583C23.7916 9.19973 23.9123 9.49117 24.1272 9.70606C24.3421 9.92094 24.6336 10.0417 24.9375 10.0417C25.2414 10.0417 25.5328 9.92094 25.7477 9.70606C25.9626 9.49117 26.0833 9.19973 26.0833 8.89583V2.02083C26.0833 1.71694 25.9626 1.42549 25.7477 1.21061C25.5328 0.995722 25.2414 0.875 24.9375 0.875H18.0625C17.7586 0.875 17.4671 0.995722 17.2522 1.21061C17.0373 1.42549 16.9166 1.71694 16.9166 2.02083C16.9166 2.32473 17.0373 2.61617 17.2522 2.83106C17.4671 3.04594 17.7586 3.16667 18.0625 3.16667Z" fill="#646464"/>
<path d="M18.0625 14.625H24.9375C25.2414 14.625 25.5328 14.5043 25.7477 14.2894C25.9626 14.0745 26.0833 13.783 26.0833 13.4791C26.0833 13.1753 25.9626 12.8838 25.7477 12.6689C25.5328 12.454 25.2414 12.3333 24.9375 12.3333H19.2083V7.74998H20.3541C20.658 7.74998 20.9495 7.62926 21.1644 7.41437C21.3792 7.19949 21.5 6.90804 21.5 6.60415C21.5 6.30025 21.3792 6.00881 21.1644 5.79392C20.9495 5.57903 20.658 5.45831 20.3541 5.45831H18.0625C17.7586 5.45831 17.4671 5.57903 17.2522 5.79392C17.0373 6.00881 16.9166 6.30025 16.9166 6.60415V13.4791C16.9166 13.783 17.0373 14.0745 17.2522 14.2894C17.4671 14.5043 17.7586 14.625 18.0625 14.625Z" fill="#646464"/>
<path d="M13.4791 16.9167H6.60415C6.30025 16.9167 6.00881 17.0374 5.79392 17.2523C5.57903 17.4672 5.45831 17.7586 5.45831 18.0625C5.45831 18.3664 5.57903 18.6579 5.79392 18.8727C6.00881 19.0876 6.30025 19.2084 6.60415 19.2084H12.3333V24.9375C12.3333 25.2414 12.454 25.5329 12.6689 25.7478C12.8838 25.9626 13.1753 26.0834 13.4791 26.0834C13.783 26.0834 14.0745 25.9626 14.2894 25.7478C14.5043 25.5329 14.625 25.2414 14.625 24.9375V18.0625C14.625 17.7586 14.5043 17.4672 14.2894 17.2523C14.0745 17.0374 13.783 16.9167 13.4791 16.9167Z" fill="#646464"/>
<path d="M2.02083 26.0834H8.89583C9.19973 26.0834 9.49117 25.9626 9.70606 25.7478C9.92094 25.5329 10.0417 25.2414 10.0417 24.9375V22.6459C10.0417 22.342 9.92094 22.0505 9.70606 21.8356C9.49117 21.6207 9.19973 21.5 8.89583 21.5C8.59194 21.5 8.30049 21.6207 8.08561 21.8356C7.87072 22.0505 7.75 22.342 7.75 22.6459V23.7917H3.16667V18.0625C3.16667 17.7586 3.04594 17.4672 2.83106 17.2523C2.61617 17.0374 2.32473 16.9167 2.02083 16.9167C1.71694 16.9167 1.42549 17.0374 1.21061 17.2523C0.995722 17.4672 0.875 17.7586 0.875 18.0625V24.9375C0.875 25.2414 0.995722 25.5329 1.21061 25.7478C1.42549 25.9626 1.71694 26.0834 2.02083 26.0834Z" fill="#646464"/>
<path d="M40.9791 30.6667H31.8125C31.5086 30.6667 31.2171 30.7874 31.0022 31.0023C30.7873 31.2172 30.6666 31.5086 30.6666 31.8125V40.9792C30.6666 41.2831 30.7873 41.5745 31.0022 41.7894C31.2171 42.0043 31.5086 42.125 31.8125 42.125C32.1164 42.125 32.4078 42.0043 32.6227 41.7894C32.8376 41.5745 32.9583 41.2831 32.9583 40.9792V32.9584H40.9791C41.283 32.9584 41.5745 32.8376 41.7893 32.6227C42.0042 32.4079 42.125 32.1164 42.125 31.8125C42.125 31.5086 42.0042 31.2172 41.7893 31.0023C41.5745 30.7874 41.283 30.6667 40.9791 30.6667V30.6667Z" fill="#646464"/>
<path d="M40.9792 35.25C40.6753 35.25 40.3838 35.3707 40.1689 35.5856C39.9541 35.8005 39.8333 36.0919 39.8333 36.3958V39.8333H37.5417V36.3958C37.5417 36.0919 37.4209 35.8005 37.2061 35.5856C36.9912 35.3707 36.6997 35.25 36.3958 35.25C36.0919 35.25 35.8005 35.3707 35.5856 35.5856C35.3707 35.8005 35.25 36.0919 35.25 36.3958V40.9792C35.25 41.2831 35.3707 41.5745 35.5856 41.7894C35.8005 42.0043 36.0919 42.125 36.3958 42.125H40.9792C41.2831 42.125 41.5745 42.0043 41.7894 41.7894C42.0043 41.5745 42.125 41.2831 42.125 40.9792V36.3958C42.125 36.0919 42.0043 35.8005 41.7894 35.5856C41.5745 35.3707 41.2831 35.25 40.9792 35.25Z" fill="#646464"/>
<path d="M27.2291 35.25C26.9252 35.25 26.6338 35.3707 26.4189 35.5856C26.204 35.8005 26.0833 36.0919 26.0833 36.3958V39.8333H18.0625C17.7586 39.8333 17.4671 39.9541 17.2522 40.1689C17.0373 40.3838 16.9166 40.6753 16.9166 40.9792C16.9166 41.2831 17.0373 41.5745 17.2522 41.7894C17.4671 42.0043 17.7586 42.125 18.0625 42.125H27.2291C27.533 42.125 27.8245 42.0043 28.0394 41.7894C28.2542 41.5745 28.375 41.2831 28.375 40.9792V36.3958C28.375 36.0919 28.2542 35.8005 28.0394 35.5856C27.8245 35.3707 27.533 35.25 27.2291 35.25Z" fill="#646464"/>
<path d="M27.2291 30.6667H18.0625C17.7586 30.6667 17.4671 30.7874 17.2522 31.0023C17.0373 31.2172 16.9166 31.5086 16.9166 31.8125V36.3959C16.9166 36.6997 17.0373 36.9912 17.2522 37.2061C17.4671 37.421 17.7586 37.5417 18.0625 37.5417H22.6458C22.9497 37.5417 23.2411 37.421 23.456 37.2061C23.6709 36.9912 23.7916 36.6997 23.7916 36.3959C23.7916 36.092 23.6709 35.8005 23.456 35.5856C23.2411 35.3707 22.9497 35.25 22.6458 35.25H19.2083V32.9584H27.2291C27.533 32.9584 27.8245 32.8376 28.0394 32.6227C28.2542 32.4079 28.375 32.1164 28.375 31.8125C28.375 31.5086 28.2542 31.2172 28.0394 31.0023C27.8245 30.7874 27.533 30.6667 27.2291 30.6667V30.6667Z" fill="#646464"/>
<path d="M27.2291 19.2084C27.533 19.2084 27.8245 19.0876 28.0394 18.8727C28.2542 18.6579 28.375 18.3664 28.375 18.0625C28.375 17.7586 28.2542 17.4672 28.0394 17.2523C27.8245 17.0374 27.533 16.9167 27.2291 16.9167H22.6458C22.3419 16.9167 22.0505 17.0374 21.8356 17.2523C21.6207 17.4672 21.5 17.7586 21.5 18.0625V22.6459C21.5 22.9498 21.6207 23.2412 21.8356 23.4561C22.0505 23.671 22.3419 23.7917 22.6458 23.7917H26.0833V26.0834H18.0625C17.7586 26.0834 17.4671 26.2041 17.2522 26.419C17.0373 26.6339 16.9166 26.9253 16.9166 27.2292C16.9166 27.5331 17.0373 27.8245 17.2522 28.0394C17.4671 28.2543 17.7586 28.375 18.0625 28.375H27.2291C27.533 28.375 27.8245 28.2543 28.0394 28.0394C28.2542 27.8245 28.375 27.5331 28.375 27.2292V22.6459C28.375 22.342 28.2542 22.0505 28.0394 21.8356C27.8245 21.6207 27.533 21.5 27.2291 21.5H23.7916V19.2084H27.2291Z" fill="#646464"/>
<path d="M18.0625 23.7917C18.3664 23.7917 18.6578 23.671 18.8727 23.4561C19.0876 23.2412 19.2083 22.9498 19.2083 22.6459V18.0625C19.2083 17.7586 19.0876 17.4672 18.8727 17.2523C18.6578 17.0374 18.3664 16.9167 18.0625 16.9167C17.7586 16.9167 17.4671 17.0374 17.2522 17.2523C17.0373 17.4672 16.9166 17.7586 16.9166 18.0625V22.6459C16.9166 22.9498 17.0373 23.2412 17.2522 23.4561C17.4671 23.671 17.7586 23.7917 18.0625 23.7917Z" fill="#646464"/>
<path d="M40.9791 16.9167H31.8125C31.5086 16.9167 31.2171 17.0374 31.0022 17.2523C30.7873 17.4672 30.6666 17.7586 30.6666 18.0625C30.6666 18.3664 30.7873 18.6579 31.0022 18.8727C31.2171 19.0876 31.5086 19.2084 31.8125 19.2084H39.8333V21.5H31.8125C31.5086 21.5 31.2171 21.6207 31.0022 21.8356C30.7873 22.0505 30.6666 22.342 30.6666 22.6459V27.2292C30.6666 27.5331 30.7873 27.8245 31.0022 28.0394C31.2171 28.2543 31.5086 28.375 31.8125 28.375C32.1164 28.375 32.4078 28.2543 32.6227 28.0394C32.8376 27.8245 32.9583 27.5331 32.9583 27.2292V23.7917H40.9791C41.283 23.7917 41.5745 23.671 41.7893 23.4561C42.0042 23.2412 42.125 22.9498 42.125 22.6459V18.0625C42.125 17.7586 42.0042 17.4672 41.7893 17.2523C41.5745 17.0374 41.283 16.9167 40.9791 16.9167Z" fill="#646464"/>
<path d="M40.9792 26.0833H36.3958C36.0919 26.0833 35.8005 26.204 35.5856 26.4189C35.3707 26.6338 35.25 26.9253 35.25 27.2291C35.25 27.533 35.3707 27.8245 35.5856 28.0394C35.8005 28.2543 36.0919 28.375 36.3958 28.375H40.9792C41.2831 28.375 41.5745 28.2543 41.7894 28.0394C42.0043 27.8245 42.125 27.533 42.125 27.2291C42.125 26.9253 42.0043 26.6338 41.7894 26.4189C41.5745 26.204 41.2831 26.0833 40.9792 26.0833Z" fill="#646464"/>
</svg>
