<svg width="26" height="24" viewBox="0 0 26 24" fill="none" xmlns="http://www.w3.org/2000/svg">
<path fill-rule="evenodd" clip-rule="evenodd" d="M5.57143 21C4.15127 21 3 19.8487 3 18.4286V5.57143C3 4.15127 4.15127 3 5.57143 3H18.4286C19.8487 3 21 4.15127 21 5.57143V18.4286C21 19.8487 19.8487 21 18.4286 21H5.57143Z" stroke="#646464" stroke-width="2" stroke-linecap="round" stroke-linejoin="round"/>
<path fill-rule="evenodd" clip-rule="evenodd" d="M12.5509 22.5555C12.4573 22.5555 12.3652 22.5322 12.2834 22.4877C12.0175 22.3432 11.9217 22.0151 12.0694 21.7549L18.0185 11.2773C18.0685 11.1893 18.1426 11.1168 18.2325 11.0679C18.4985 10.9234 18.8338 11.0171 18.9816 11.2773L24.9307 21.7549C24.9761 21.8349 25 21.925 25 22.0166C25 22.3142 24.7534 22.5555 24.4492 22.5555L12.5509 22.5555Z" fill="white" stroke="#646464" stroke-width="2" stroke-linecap="round" stroke-linejoin="round"/>
</svg>
