<svg xmlns="http://www.w3.org/2000/svg" width="426.302" height="368.553" viewBox="0 0 426.302 368.553">
  <g id="Group_3" data-name="Group 3" transform="translate(-978.349 -318.723)">
    <path id="Path_6" data-name="Path 6" d="M0,0H426.3V368.553H0Z" transform="translate(978.349 318.723)" fill="none"/>
    <g id="Lightbox" transform="translate(420.457 118.11)">
      <g id="bg" transform="translate(564.543 208.89)" fill="none" stroke="#707070" stroke-width="1">
        <rect width="413" height="353" rx="6" stroke="none"/>
        <rect x="0.5" y="0.5" width="412" height="352" rx="5.5" fill="none"/>
      </g>
      <path id="Path_5" data-name="Path 5" d="M-151.6-3.734h4.233V-24.84H-151.6Zm31.84,0h4.233v-9.827c0-4.626-2.842-7.166-6.864-7.166a6.632,6.632,0,0,0-5.745,3.205,6.412,6.412,0,0,0-5.9-3.205,6.1,6.1,0,0,0-4.929,2.268v-2.026H-143.2V-3.734h4.233v-9.253c0-2.661,1.482-4.052,3.78-4.052,2.238,0,3.719,1.391,3.719,4.052v9.253h4.233v-9.253c0-2.661,1.482-4.052,3.749-4.052,2.238,0,3.719,1.391,3.719,4.052Zm7.166-8.436c0,5.231,3.387,8.708,7.62,8.708a6.607,6.607,0,0,0,5.564-2.721v2.449h4.263V-20.485h-4.263V-18.1a6.624,6.624,0,0,0-5.533-2.661C-109.21-20.758-112.6-17.4-112.6-12.17Zm13.183.06c0,3.175-2.117,4.929-4.445,4.929-2.268,0-4.415-1.814-4.415-4.989s2.147-4.868,4.415-4.868C-101.53-17.038-99.413-15.285-99.413-12.11Zm7.317-.06c0,5.231,3.387,8.708,7.65,8.708a6.607,6.607,0,0,0,5.533-2.752v2.6c0,3.114-1.814,4.445-4.142,4.445-2.117,0-3.689-1-4.112-2.51h-4.2c.423,3.84,3.719,6.2,8.436,6.2,5.5,0,8.285-3.6,8.285-8.134V-20.485h-4.263V-18.1a6.554,6.554,0,0,0-5.533-2.661C-88.71-20.758-92.1-17.4-92.1-12.17Zm13.183.06c0,3.175-2.117,4.929-4.445,4.929-2.268,0-4.415-1.814-4.415-4.989s2.147-4.868,4.415-4.868C-81.029-17.038-78.913-15.285-78.913-12.11Zm15.6-5.171a3.722,3.722,0,0,1,3.991,3.6h-7.952A3.89,3.89,0,0,1-63.311-17.28ZM-55.358-9h-4.566A3.452,3.452,0,0,1-63.28-6.97,3.919,3.919,0,0,1-67.3-10.84h12.246a9.9,9.9,0,0,0,.121-1.633,7.864,7.864,0,0,0-8.255-8.285c-4.959,0-8.406,3.356-8.406,8.648,0,5.261,3.538,8.648,8.406,8.648A7.786,7.786,0,0,0-55.358-9Zm10.643-2.812c0,5.564,3.81,8.285,8.436,8.285s8.618-2.721,8.618-8.285V-24.84h-4.263v13.062c0,2.9-1.572,4.415-4.294,4.415-2.691,0-4.263-1.512-4.263-4.415V-24.84h-4.233Zm25.369-6.259v-2.419h-4.233V4.248h4.233V-6.123a6.839,6.839,0,0,0,5.533,2.661c4.294,0,7.65-3.477,7.65-8.708s-3.356-8.587-7.65-8.587A6.692,6.692,0,0,0-19.346-18.067Zm8.859,5.9c0,3.175-2.147,4.989-4.445,4.989-2.268,0-4.415-1.754-4.415-4.929s2.147-4.929,4.415-4.929C-12.633-17.038-10.486-15.345-10.486-12.17Zm7.408,8.436H1.155V-26.11H-3.078ZM21.5-12.11a8.278,8.278,0,0,0-8.618-8.648A8.278,8.278,0,0,0,4.269-12.11a8.2,8.2,0,0,0,8.5,8.648A8.375,8.375,0,0,0,21.5-12.11Zm-12.941,0c0-3.356,2.026-4.959,4.263-4.959s4.324,1.6,4.324,4.959c0,3.326-2.147,4.959-4.384,4.959C10.5-7.151,8.563-8.784,8.563-12.11Zm14.967-.06c0,5.231,3.387,8.708,7.62,8.708a6.607,6.607,0,0,0,5.564-2.721v2.449h4.263V-20.485H36.713V-18.1a6.624,6.624,0,0,0-5.533-2.661C26.917-20.758,23.53-17.4,23.53-12.17Zm13.183.06c0,3.175-2.117,4.929-4.445,4.929C30-7.181,27.854-9,27.854-12.17S30-17.038,32.269-17.038C34.6-17.038,36.713-15.285,36.713-12.11Zm7.317-.06c0,5.231,3.387,8.708,7.65,8.708a6.331,6.331,0,0,0,5.5-2.752v2.479h4.294V-26.11H57.184v7.952a6.874,6.874,0,0,0-5.473-2.6C47.417-20.758,44.031-17.4,44.031-12.17Zm13.183.06c0,3.175-2.117,4.929-4.445,4.929C50.5-7.181,48.355-9,48.355-12.17s2.147-4.868,4.415-4.868C55.1-17.038,57.214-15.285,57.214-12.11ZM65.62-3.734h4.233V-20.485H65.62Zm2.147-18.747a2.5,2.5,0,0,0,2.6-2.479,2.5,2.5,0,0,0-2.6-2.479,2.482,2.482,0,0,0-2.6,2.479A2.482,2.482,0,0,0,67.767-22.481ZM85.758-3.734h4.233v-9.827c0-4.626-2.782-7.166-6.682-7.166a6.257,6.257,0,0,0-5.05,2.328v-2.086H74.026V-3.734h4.233v-9.253c0-2.691,1.482-4.142,3.78-4.142,2.238,0,3.719,1.451,3.719,4.142Zm7.166-8.436c0,5.231,3.387,8.708,7.65,8.708a6.607,6.607,0,0,0,5.533-2.752v2.6c0,3.114-1.814,4.445-4.142,4.445-2.117,0-3.689-1-4.112-2.51h-4.2c.423,3.84,3.719,6.2,8.436,6.2,5.5,0,8.285-3.6,8.285-8.134V-20.485h-4.263V-18.1a6.554,6.554,0,0,0-5.533-2.661C96.311-20.758,92.924-17.4,92.924-12.17Zm13.183.06c0,3.175-2.117,4.929-4.445,4.929-2.268,0-4.415-1.814-4.415-4.989s2.147-4.868,4.415-4.868C103.991-17.038,106.107-15.285,106.107-12.11Z" transform="translate(792.106 446.257)" fill="#7a7a7a"/>
      <g id="photo" transform="translate(733.463 309.798)">
        <g id="Group_2" data-name="Group 2" transform="translate(0 0)">
          <g id="Group_1" data-name="Group 1" transform="translate(0 0)">
            <circle id="Ellipse_1" data-name="Ellipse 1" cx="5.533" cy="5.533" r="5.533" transform="translate(24.82 17.597)" fill="#7a7a7a"/>
            <path id="Path_3" data-name="Path 3" d="M75.766,67.492a17.037,17.037,0,0,0-9.528-4.534V34.835a11.063,11.063,0,0,0-3.151-7.684A10.737,10.737,0,0,0,55.4,24H10.835a11.063,11.063,0,0,0-7.684,3.151A10.737,10.737,0,0,0,0,34.835V80.709a11.063,11.063,0,0,0,3.151,7.684,10.737,10.737,0,0,0,7.684,3.151H53.943A16.257,16.257,0,0,0,75.766,67.492ZM4.073,34.835a6.432,6.432,0,0,1,2-4.687,6.742,6.742,0,0,1,4.764-2H55.4a6.822,6.822,0,0,1,6.762,6.762V58.886L50.792,47.514a2.063,2.063,0,0,0-2.92,0L30.737,64.726l-11.6-11.68a2.063,2.063,0,0,0-2.92,0L4.073,65.341Zm6.685,52.79v-.154a6.742,6.742,0,0,1-4.764-2,7.013,7.013,0,0,1-1.921-4.764V71.181L17.674,57.5l11.6,11.6a2.137,2.137,0,0,0,2.92,0L49.332,51.894l11.219,11.3-.692.231a7.135,7.135,0,0,0-1,.307c-.307.077-.615.231-.922.307a2.3,2.3,0,0,0-.615.307,7.14,7.14,0,0,0-.768.384l-1.153.692c-.231.154-.384.231-.615.384-.154.077-.231.154-.384.231a9.271,9.271,0,0,0-1.844,1.614A16.256,16.256,0,0,0,47.8,79.172a16.893,16.893,0,0,0,.384,3.381c.077.307.154.538.231.845.231.768.461,1.537.768,2.305v.077a14.1,14.1,0,0,0,1,1.844Zm62.011,0a12.156,12.156,0,0,1-16.982.154c-.307-.307-.615-.692-.922-1-.231-.231-.461-.538-.692-.768A7.3,7.3,0,0,1,53.4,84.7c-.154-.307-.307-.538-.461-.845a6.49,6.49,0,0,1-.384-1.306c-.077-.307-.231-.692-.307-1a12.718,12.718,0,0,1-.231-2.459,12.334,12.334,0,0,1,3.535-8.606,11.88,11.88,0,0,1,8.606-3.535,12.334,12.334,0,0,1,8.606,3.535A12.01,12.01,0,0,1,76.3,79.1,12.29,12.29,0,0,1,72.769,87.625Z" transform="translate(0 -24)" fill="#7a7a7a"/>
            <path id="Path_4" data-name="Path 4" d="M306.86,265.015a2.684,2.684,0,0,0-.692-.461,2.245,2.245,0,0,0-.692-.154h-.154a2.245,2.245,0,0,0-.692.154,1.815,1.815,0,0,0-.692.461l-4.764,4.764a2.065,2.065,0,0,0,2.92,2.92l1.229-1.229v8.453a2.075,2.075,0,0,0,4.149,0v-8.453L308.7,272.7a2.065,2.065,0,0,0,2.92-2.92Z" transform="translate(-241.238 -218.218)" fill="#7a7a7a"/>
          </g>
        </g>
      </g>
    </g>
  </g>
</svg>
