<svg width="45" height="45" viewBox="0 0 45 45" fill="none" xmlns="http://www.w3.org/2000/svg">
<path fill-rule="evenodd" clip-rule="evenodd" d="M18.8445 2.48901C17.5554 2.48901 16.5103 3.53407 16.5103 4.8232V11.2138H14.5103V4.8232C14.5103 2.4295 16.4508 0.489014 18.8445 0.489014H39.9611C42.3548 0.489014 44.2952 2.4295 44.2952 4.8232V25.9397C44.2952 28.3334 42.3548 30.2739 39.9611 30.2739H33.5705V28.2739H39.9611C41.2502 28.2739 42.2952 27.2289 42.2952 25.9397V4.8232C42.2952 3.53407 41.2502 2.48901 39.9611 2.48901H18.8445ZM2.61786 18.7157C2.61786 17.4265 3.66292 16.3815 4.95205 16.3815H26.0686C27.3577 16.3815 28.4028 17.4265 28.4028 18.7157V39.8322C28.4028 41.1214 27.3577 42.1664 26.0686 42.1664H4.95205C3.66292 42.1664 2.61786 41.1214 2.61786 39.8322V18.7157ZM4.95205 14.3815C2.55835 14.3815 0.617864 16.322 0.617864 18.7157V39.8322C0.617864 42.2259 2.55835 44.1664 4.95205 44.1664H26.0686C28.4623 44.1664 30.4028 42.2259 30.4028 39.8322V18.7157C30.4028 16.322 28.4623 14.3815 26.0686 14.3815H4.95205Z" fill="white"/>
</svg>
