<svg width="48" height="48" viewBox="0 0 48 48" fill="none" xmlns="http://www.w3.org/2000/svg">
<path d="M11.3304 39.1768H6.50893C3.85714 39.1768 1.6875 37.0071 1.6875 34.3553V19.366C1.6875 16.7143 3.85714 14.5446 6.50893 14.5446H41.8661C44.5179 14.5446 46.6875 16.7143 46.6875 19.366V34.3553C46.6875 37.0071 44.5179 39.1768 41.8661 39.1768H37.0446" stroke="white" stroke-width="2" stroke-linecap="round" stroke-linejoin="round"/>
<path fill-rule="evenodd" clip-rule="evenodd" d="M13.4732 32.7589H34.9018C36.0852 32.7589 37.0446 33.7183 37.0446 34.9018V46.6875H11.3304V34.9018C11.3304 33.7183 12.2897 32.7589 13.4732 32.7589Z" stroke="white" stroke-width="2" stroke-linecap="round" stroke-linejoin="round"/>
<path fill-rule="evenodd" clip-rule="evenodd" d="M14.5446 1.6875H24.1875H33.8304C35.6056 1.6875 37.0446 3.12658 37.0446 4.90179V14.5446H11.3304V4.90179C11.3304 3.12658 12.7694 1.6875 14.5446 1.6875Z" stroke="white" stroke-width="2" stroke-linecap="round" stroke-linejoin="round"/>
</svg>
