<svg width="23" height="24" viewBox="0 0 23 24" fill="none" xmlns="http://www.w3.org/2000/svg">
<path fill-rule="evenodd" clip-rule="evenodd" d="M9.44903 2.77942C9.09816 2.77942 8.81373 3.06385 8.81373 3.41471V6.54903H6.81373V3.41471C6.81373 1.95928 7.99359 0.779419 9.44903 0.779419H19.8059C21.2613 0.779419 22.4412 1.95928 22.4412 3.41471V13.7716C22.4412 15.227 21.2613 16.4069 19.8059 16.4069H16.6716V14.4069H19.8059C20.1568 14.4069 20.4412 14.1224 20.4412 13.7716V3.41471C20.4412 3.06385 20.1568 2.77942 19.8059 2.77942H9.44903ZM2 10.2284C2 9.87758 2.28443 9.59315 2.63529 9.59315H12.9922C13.343 9.59315 13.6275 9.87758 13.6275 10.2284V20.5853C13.6275 20.9362 13.343 21.2206 12.9922 21.2206H2.63529C2.28443 21.2206 2 20.9362 2 20.5853V10.2284ZM2.63529 7.59315C1.17986 7.59315 0 8.77301 0 10.2284V20.5853C0 22.0407 1.17986 23.2206 2.63529 23.2206H12.9922C14.4476 23.2206 15.6275 22.0407 15.6275 20.5853V10.2284C15.6275 8.77301 14.4476 7.59315 12.9922 7.59315H2.63529Z" fill="white"/>
</svg>
